<svg xmlns="http://www.w3.org/2000/svg" viewBox="0 0 43.5 75.28"><defs><style>.cls-1{fill:#fff100;opacity:0.65;}</style></defs><title>アセット 6</title><g id="レイヤー_2" data-name="レイヤー 2"><g id="レイヤー_2-2" data-name="レイヤー 2"><path class="cls-1" d="M8.66,73.1s1.72.26,2.13-1,.92-5,1.21-6S13.15,63,13.15,63A1.76,1.76,0,0,0,12,62.17c-.8-.16-1.43.31-2.79-.5s-2.65-2.16-2.58-3.28-.45-1.28-1-2.13-2-2.72-2.13-3.52a26.62,26.62,0,0,0-.23-3.21c-.28-.94-1.38-2-1.51-2.76a8.77,8.77,0,0,1,.08-2.06c0-1-1.85-3.53-1.79-5.22a9.91,9.91,0,0,1,.58-3.05c.08-.26.57,0,.57,0a5.16,5.16,0,0,1,.34-2L1.83,34s.58-1,1-.83l.44.14s-.4-1.17-.06-1.63l.33-.47s.53-1.36.82-2.31.91-2.57.91-2.57l.43.14.34-1.7.44-1.1.52.17a8.43,8.43,0,0,0,.59-1,.8.8,0,0,1,.79-.42s.8-1.65,1-2.14.58.28.58.28.92-1.71,1.31-2.35.7.5.7.5A2.74,2.74,0,0,1,13.14,17s1.08.82,1,1.08l.08-.26s.29-1.24.48-1.85.9.47.9.47.26-1.44.69-1.59,1,.22,1.26-.36a9.18,9.18,0,0,1,1.37-1.66c.26-.21,1.35-.06,1.21.38,0,0,.32-1.61.72-1.68l.4-.06.67.87a15.62,15.62,0,0,1,1.45-2.77l.37-.27,0,1A18.08,18.08,0,0,1,24.81,8.3c.31-.38.66.3.66.3l.6-1.9.64.39A6.8,6.8,0,0,1,27,4.9l.29-.29.57.28.61-1.62.21.54L29,2.68l.52.45,0-1.14c.28-.58,1.14-2.12,1.58-2s.65,1.25.65,1.25-.63.18-.74.53l-.11.34s-.25.21-.15.81l.09.6,0,.49s.89.18.89-1.62c0,0,.93,1,.83,1.59a4.35,4.35,0,0,0,.06,1.63c.09.32.89.19.81.73s-.7,4.06-.61,4.37,1.07.53,1.07.53l.27,1.89.58.28.5,2.63s1.07.24,1.26-.08.33,2.57.33,2.57L38.2,18l.25,2.26s.88,1.42.64,2.2l-.25.78,1-.36a10.69,10.69,0,0,1-.3,2.47l.75.05s.41.79.31,1.14.25,1.31.08,1.55.07.68.07.68a3.36,3.36,0,0,1,1,.79c.18.34-.24,1.06-.24,1.06s.94-.56,1-.07a7.89,7.89,0,0,1-.51,1.93l1,.13-.13,1a6.61,6.61,0,0,1-.51,1.93c-.25.21,1.2-.48,1.2-.48l-.06,1.41a3.47,3.47,0,0,1,0,1.23,1.24,1.24,0,0,1-.68.65l.61.47v1.52l-.65.56.58.28-.28.58-.46,1.47.35.39a16.53,16.53,0,0,1-.62,2l0,.66a10.44,10.44,0,0,1-.85,1.83l-.29.29-.66,0a9.61,9.61,0,0,1-.79,1.94,3.31,3.31,0,0,1-1.2.48L38,51l-.61,1.33-.83.21a8.76,8.76,0,0,0-.82.79,14.94,14.94,0,0,1-1.23,1.51l-.57.59s-.41.72-.84.87a5.78,5.78,0,0,1-1.49.2c-.29,0-1.17.11-1.17.39s.21.55.07,1a10.19,10.19,0,0,1-.86,1.53A8.29,8.29,0,0,0,29,60.83c-.16.52.59.85.48,1.2s-2.31.41-2.31.41l-.8.71-2.05.49a2.91,2.91,0,0,1-1.05.62c-.52.13-2,.33-2,.33s-.4.63-1.95.15-5-1.18-5-1.18S14,65,13.75,65.66a47.27,47.27,0,0,0-.9,4.67,7,7,0,0,1-.92,2.94c-.48.61-1.48,2-1.48,2s-.59-.85-.77-1.19a5.17,5.17,0,0,0-1-1"/></g></g></svg>