<svg xmlns="http://www.w3.org/2000/svg" viewBox="0 0 43.22 77.21"><defs><style>.cls-1{fill:#13ae67;opacity:0.65;}</style></defs><title>アセット 7</title><g id="レイヤー_2" data-name="レイヤー 2"><g id="レイヤー_2-2" data-name="レイヤー 2"><path class="cls-1" d="M12.67,75.26s1.74,0,2-1.29.31-5.11.49-6.09.77-3.18.77-3.18A1.76,1.76,0,0,0,14.67,64c-.82-.06-1.38.48-2.83-.16S9,62,8.88,60.9s-.6-1.21-1.29-2-2.31-2.46-2.54-3.24a23.81,23.81,0,0,0-.61-3.15c-.38-.91-1.61-1.78-1.83-2.56a8.35,8.35,0,0,1-.17-2.06c-.09-1-2.25-3.28-2.4-5a9.63,9.63,0,0,1,.21-3.09c0-.27.56-.08.56-.08a5.21,5.21,0,0,1,.1-2l.28-.5s.47-1,.91-.93l.45.08S2,35.27,2.29,34.77l.28-.5s.36-1.41.54-2.39.58-2.66.58-2.66l.45.08.14-1.72.3-1.15.54.1a8.89,8.89,0,0,0,.46-1A.8.8,0,0,1,6.32,25s.6-1.73.79-2.25.61.21.61.21.7-1.81,1-2.49.76.42.76.42A2.77,2.77,0,0,1,10.38,19s1.17.68,1.12.95l.05-.27s.14-1.26.26-1.89.95.36.95.36.08-1.46.49-1.66,1,.09,1.2-.51a9.74,9.74,0,0,1,1.17-1.82c.23-.23,1.33-.21,1.25.24,0,0,.12-1.64.51-1.75l.39-.12.77.79a16.21,16.21,0,0,1,1.1-2.93L20,10.1l.1,1A18.71,18.71,0,0,1,20.92,9c.26-.41.7.22.7.22l.36-2,.68.31a6.92,6.92,0,0,1,0-2.21L23,5l.6.2L24,3.56l.27.51.22-1.16.57.38-.16-1.13c.21-.61.88-2.24,1.33-2.16s.8,1.17.8,1.17-.61.25-.67.61l-.07.36s-.23.23-.06.82l.17.58.1.48s.9.08.68-1.72c0,0,1.05.84,1,1.48a4.42,4.42,0,0,0,.25,1.62c.13.3.91.07.9.63s-.21,4.11-.08,4.41,1.13.39,1.13.39l.48,1.85.61.2.82,2.55s1.09.11,1.24-.23.64,2.52.64,2.52L35.39,17l.51,2.21s1.05,1.3.9,2.11l-.15.8.92-.48a10.66,10.66,0,0,1,0,2.49l.74,0s.51.74.45,1.1.4,1.27.27,1.52.15.68.15.68a3.14,3.14,0,0,1,1.07.66c.22.31-.1,1.08-.1,1.08s.86-.67,1-.19a7.91,7.91,0,0,1-.27,2h1v1a6.83,6.83,0,0,1-.28,2c-.23.23,1.13-.62,1.13-.62l.11,1.4A3.67,3.67,0,0,1,42.94,36a1.25,1.25,0,0,1-.59.72l.66.4.18,1.51-.58.63.61.2L43,40l-.29,1.52.4.35A16.67,16.67,0,0,1,42.75,44l.06.65a10.67,10.67,0,0,1-.63,1.92l-.24.32-.66.06a9.9,9.9,0,0,1-.56,2,3.32,3.32,0,0,1-1.13.62l-.42.29-.45,1.39-.79.32a8.34,8.34,0,0,0-.72.88,15.21,15.21,0,0,1-1.05,1.65l-.48.65s-.33.77-.74,1a6.13,6.13,0,0,1-1.45.38c-.29,0-1.15.24-1.12.53s.28.51.2.95a11.13,11.13,0,0,1-.68,1.63,7.53,7.53,0,0,0-.54,1.47c-.1.53.68.77.62,1.13s-2.25.69-2.25.69l-.71.79L27,64a2.83,2.83,0,0,1-1,.74c-.49.19-1.94.56-1.94.56s-.32.68-1.92.38-5.06-.57-5.06-.57-.18,1.45-.31,2.16-.34,3.81-.33,4.74a7,7,0,0,1-.56,3c-.4.66-1.23,2.17-1.23,2.17s-.69-.78-.91-1.09a5.11,5.11,0,0,0-1.13-.86"/></g></g></svg>