<svg xmlns="http://www.w3.org/2000/svg" viewBox="0 0 42.6 77.87"><defs><style>.cls-1{fill:#c30d23;opacity:0.65;}</style></defs><title>アセット 1</title><g id="レイヤー_2" data-name="レイヤー 2"><g id="レイヤー_2-2" data-name="レイヤー 2"><path class="cls-1" d="M19.72,76.41s1.72-.33,1.67-1.69-.8-5.06-.83-6,.08-3.27.08-3.27A1.77,1.77,0,0,0,19.26,65c-.81.12-1.24.76-2.79.45S13.25,64.27,13,63.2s-.86-1.07-1.69-1.67-2.79-1.91-3.17-2.62a26,26,0,0,0-1.28-3c-.57-.8-1.95-1.39-2.33-2.1a8.62,8.62,0,0,1-.61-2c-.3-1-2.9-2.72-3.41-4.34A10,10,0,0,1,0,44.46c0-.27.54-.2.54-.2a5.22,5.22,0,0,1-.34-2l.17-.55s.23-1.1.69-1.11l.45,0s-.76-1-.59-1.52l.16-.55s0-1.45,0-2.45,0-2.72,0-2.72l.45,0-.24-1.71.05-1.19h.55a9.35,9.35,0,0,0,.24-1.1.8.8,0,0,1,.61-.66s.21-1.82.29-2.36.63.07.63.07.31-1.92.46-2.65S5,24,5,24a2.74,2.74,0,0,1,.48-2s1.28.42,1.29.69v-.27s-.13-1.27-.15-1.9,1,.14,1,.14-.23-1.44.13-1.72,1-.13,1.06-.76a9.42,9.42,0,0,1,.75-2c.18-.28,1.26-.5,1.27-.05,0,0-.23-1.62.13-1.81l.35-.2.93.61a15.18,15.18,0,0,1,.45-3.1l.26-.37.3.9a17.74,17.74,0,0,1,.38-2.19c.17-.46.73.06.73.06l-.07-2,.73.16A6.79,6.79,0,0,1,14.55,6l.17-.37.64.07,0-1.72.38.44,0-1.18.65.25L16,2.39c.07-.64.38-2.38.83-2.39s1,1,1,1-.53.38-.52.74v.36s-.17.28.12.81l.29.54.19.45s.91-.12.31-1.83c0,0,1.2.6,1.31,1.23a4.2,4.2,0,0,0,.59,1.52c.19.27.9-.12,1,.42s.68,4.07.87,4.33,1.18.15,1.18.15l.87,1.69.64.07,1.35,2.32s1.08-.13,1.16-.49,1.16,2.32,1.16,2.32l1.06-.94,1,2.05s1.3,1.05,1.33,1.87l0,.81.8-.66a11,11,0,0,1,.53,2.43l.72-.2s.65.61.67,1,.67,1.15.59,1.43.29.63.29.63a3.3,3.3,0,0,1,1.19.41c.28.26.13,1.09.13,1.09s.7-.84.89-.4a8,8,0,0,1,.16,2l1-.22.21,1a7,7,0,0,1,.16,2c-.18.27,1-.85,1-.85l.41,1.35a3.68,3.68,0,0,1,.4,1.16,1.23,1.23,0,0,1-.43.83l.73.25.5,1.44-.43.74.64.07-.07.63,0,1.55.46.25a15.53,15.53,0,0,1,.07,2.09l.2.63a10.15,10.15,0,0,1-.21,2l-.17.37-.63.2a9.56,9.56,0,0,1-.11,2.09c-.17.37-1,.85-1,.85l-.35.37L40,47.35l-.71.48a8.21,8.21,0,0,0-.51,1,14.14,14.14,0,0,1-.67,1.84l-.33.73a2.37,2.37,0,0,1-.51,1.11A6.27,6.27,0,0,1,36,53.2c-.27.1-1.08.49-1,.76s.38.44.39.89a10.28,10.28,0,0,1-.3,1.73,8.6,8.6,0,0,0-.23,1.55c0,.55.84.61.85,1s-2,1.16-2,1.16l-.51.92-1.78,1.15a2.81,2.81,0,0,1-.79.93c-.44.29-1.78,1-1.78,1S28.61,65,27,65s-5.07.53-5.07.53.14,1.44.17,2.17a46.05,46.05,0,0,0,.69,4.7,7,7,0,0,1,.1,3.08c-.25.73-.74,2.38-.74,2.38S21.29,77.26,21,77a5.41,5.41,0,0,0-1.29-.59"/></g></g></svg>