<svg xmlns="http://www.w3.org/2000/svg" viewBox="0 0 43.35 76.2"><defs><style>.cls-1{fill:#0b318f;opacity:0.65;}</style></defs><title>アセット 8</title><g id="レイヤー_2" data-name="レイヤー 2"><g id="レイヤー_2-2" data-name="レイヤー 2"><path class="cls-1" d="M10.31,74.12S12,74.29,12.38,73s.67-5.08.92-6,1-3.11,1-3.11A1.78,1.78,0,0,0,13.1,63c-.82-.11-1.41.39-2.82-.35s-2.75-2-2.74-3.15S7,58.27,6.4,57.45,4.27,54.83,4.1,54a26,26,0,0,0-.39-3.2c-.32-.92-1.48-1.88-1.64-2.67A8.72,8.72,0,0,1,2,46.1c0-1-2-3.43-2-5.13A9.6,9.6,0,0,1,.43,37.9c.06-.27.57,0,.57,0a5.25,5.25,0,0,1,.24-2l.31-.48s.54-1,1-.87l.44.11S2.52,33.47,2.83,33l.31-.48s.45-1.38.71-2.35.77-2.61.77-2.61l.44.12L5.32,26l.38-1.11.53.13a9.06,9.06,0,0,0,.54-1,.81.81,0,0,1,.77-.46s.72-1.68,1-2.19.59.25.59.25.83-1.75,1.19-2.41.72.47.72.47a2.74,2.74,0,0,1,1-1.79s1.11.76,1,1l.07-.26s.23-1.26.39-1.87.92.43.92.43.19-1.45.61-1.62,1,.16,1.24-.43a9.75,9.75,0,0,1,1.29-1.73c.25-.22,1.34-.12,1.23.32,0,0,.24-1.62.63-1.71l.4-.08.72.84a16.39,16.39,0,0,1,1.3-2.85l.36-.28,0,.95a18.68,18.68,0,0,1,1-2c.29-.4.68.27.68.27l.5-1.94.66.36a7,7,0,0,1,.19-2.2l.27-.3.59.25.52-1.65.24.53.3-1.14.54.42-.07-1.14c.24-.59,1-2.17,1.47-2.05s.71,1.21.71,1.21-.62.22-.71.57L29,2.14s-.24.22-.12.81l.13.6.06.48s.9.14.81-1.66c0,0,1,.91.91,1.55A4.27,4.27,0,0,0,31,5.55c.1.3.9.14.85.69s-.5,4.08-.4,4.39,1.1.47,1.1.47L32.88,13l.59.25.63,2.6s1.08.18,1.26-.14.46,2.55.46,2.55l1.28-.6.35,2.25s1,1.37.75,2.16l-.21.79.95-.41a10.89,10.89,0,0,1-.17,2.48h.74s.46.78.37,1.13.31,1.3.16,1.54.1.68.1.68a3.42,3.42,0,0,1,1,.74c.19.33-.19,1.07-.19,1.07s.91-.6,1-.12a8.07,8.07,0,0,1-.41,1.95l1,.08-.08,1a7,7,0,0,1-.41,2c-.25.21,1.17-.54,1.17-.54v1.41a3.7,3.7,0,0,1,0,1.23,1.2,1.2,0,0,1-.64.67l.63.45.07,1.52-.62.59.59.24-.25.6-.38,1.49.37.38a15.34,15.34,0,0,1-.53,2l0,.66a10.17,10.17,0,0,1-.77,1.87l-.27.3-.66,0a9.32,9.32,0,0,1-.7,2,3.1,3.1,0,0,1-1.17.54l-.44.26L38,52l-.82.25a8.75,8.75,0,0,0-.78.83,12.89,12.89,0,0,1-1.16,1.58l-.53.61s-.38.74-.8.91a6.06,6.06,0,0,1-1.48.27c-.28,0-1.16.17-1.15.45s.24.54.13,1a11.23,11.23,0,0,1-.79,1.58A8.55,8.55,0,0,0,30,60.86c-.14.53.63.82.54,1.18s-2.29.52-2.29.52l-.76.74-2,.6a2.93,2.93,0,0,1-1,.67c-.5.15-2,.42-2,.42s-.36.66-1.94.25-5-.93-5-.93-.27,1.43-.46,2.13a47.11,47.11,0,0,0-.66,4.7,7,7,0,0,1-.78,3c-.44.63-1.38,2.07-1.38,2.07s-.63-.82-.82-1.15a5.49,5.49,0,0,0-1.07-.93"/></g></g></svg>