<svg xmlns="http://www.w3.org/2000/svg" viewBox="0 0 44.82 66.07"><defs><style>.cls-1{fill:#e61673;opacity:0.65;}</style></defs><title>アセット 5</title><g id="レイヤー_2" data-name="レイヤー 2"><g id="レイヤー_2-2" data-name="レイヤー 2"><path class="cls-1" d="M39,65.92s1.36-1.1.67-2.27-3.1-4.08-3.6-4.94-1.49-2.91-1.49-2.91a1.76,1.76,0,0,0-1.4.29c-.66.49-.73,1.27-2.25,1.73s-3.38.5-4.16-.31-1.26-.53-2.28-.67-3.36-.35-4-.8a26.25,26.25,0,0,0-2.53-2c-.88-.44-2.37-.3-3.05-.75s-.74-.72-1.48-1.45-3.84-1-5-2.2a9.86,9.86,0,0,1-1.87-2.48c-.13-.24.38-.43.38-.43s-1.12-1-1.24-1.59l-.11-.56s-.31-1.08.08-1.31l.39-.23S4.81,42.56,4.69,42l-.11-.56s-.65-1.3-1.16-2.16-1.28-2.4-1.28-2.4l.39-.23-1-1.4L1,34.18l.47-.27a8.73,8.73,0,0,0-.31-1.08A.79.79,0,0,1,1.38,32S.7,30.26.51,29.74s.59-.24.59-.24S.46,27.67.25,27s.84-.17.84-.17a2.76,2.76,0,0,1-.53-2s1.33-.25,1.46,0-.13-.24-.13-.24-.72-1.05-1-1.6,1-.34,1-.34S.92,21.42,1.09,21s.82-.58.58-1.17a9.57,9.57,0,0,1-.3-2.14c0-.32.87-1,1.1-.63,0,0-1-1.32-.76-1.66l.23-.34,1.1.09A16.07,16.07,0,0,1,2,12.21l0-.45.7.65A18.57,18.57,0,0,1,2,10.3c-.07-.48.68-.29.68-.29l-1-1.72.72-.21S1,6.78,1,6.38L1,6l.59-.25L.76,4.2l.55.21-.6-1,.69-.08L.54,2.55C.3,2-.26.28.14.05S1.5.41,1.5.41s-.29.59-.1.9l.18.32s0,.32.49.66l.5.33.39.3s.74-.53-.6-1.75c0,0,1.34,0,1.74.46A4.21,4.21,0,0,0,5.34,2.69c.3.14.74-.53,1.09-.11S9,5.84,9.25,6s1.11-.44,1.11-.44l1.57,1.08.6-.24,2.28,1.4s.9-.62.79-1,2.13,1.49,2.13,1.49L18.21,7,20,8.31s1.65.3,2.06,1l.41.71.39-1A10.83,10.83,0,0,1,24.52,11l.54-.52s.86.23,1.05.54,1.14.7,1.2,1,.55.42.55.42a3.45,3.45,0,0,1,1.25-.21c.37.1.62.9.62.9s.22-1.07.61-.77A8.23,8.23,0,0,1,31.42,14l.77-.66.66.77s1.1,1.36,1.08,1.68.45-1.21.45-1.21l1,1a3.33,3.33,0,0,1,.9.84,1.22,1.22,0,0,1,0,.93l.77-.13,1.12,1,0,.85.6-.24.24.6.77,1.33h.53a16.48,16.48,0,0,1,1.05,1.8l.47.46a9.59,9.59,0,0,1,.77,1.86l0,.4-.46.48a9.41,9.41,0,0,1,.89,1.89,3.13,3.13,0,0,1-.45,1.21l-.13.5L43,30.71l-.4.76a8,8,0,0,0,0,1.14A13.76,13.76,0,0,1,43,34.54l0,.81a2.37,2.37,0,0,1,.08,1.21,6.2,6.2,0,0,1-.86,1.24c-.19.21-.71.93-.5,1.12s.54.21.77.61a10.32,10.32,0,0,1,.55,1.67,8.38,8.38,0,0,0,.54,1.47c.28.47,1,.14,1.21.45s-1.26,2-1.26,2v1.06l-1,1.85a3.07,3.07,0,0,1-.25,1.2c-.26.46-1.11,1.69-1.11,1.69s.2.72-1.21,1.54-4.21,2.87-4.21,2.87.81,1.21,1.18,1.83A45.16,45.16,0,0,0,39.75,61a7.09,7.09,0,0,1,1.55,2.66c.13.77.48,2.45.48,2.45s-1-.14-1.4-.24a5.76,5.76,0,0,0-1.42.09"/></g></g></svg>