<svg xmlns="http://www.w3.org/2000/svg" viewBox="0 0 42.93 77.99"><defs><style>.cls-1{fill:#920783;opacity:0.65;}</style></defs><title>アセット 4</title><g id="レイヤー_2" data-name="レイヤー 2"><g id="レイヤー_2-2" data-name="レイヤー 2"><path class="cls-1" d="M16.16,76.27s1.74-.14,1.85-1.5-.24-5.11-.16-6.11.43-3.24.43-3.24A1.8,1.8,0,0,0,17,64.86c-.82,0-1.32.63-2.83.15s-3.07-1.52-3.25-2.62-.73-1.15-1.5-1.85-2.55-2.2-2.86-2.95a24.67,24.67,0,0,0-.94-3.08c-.48-.85-1.79-1.59-2.09-2.34a8.5,8.5,0,0,1-.39-2c-.19-1-2.58-3-2.91-4.68a10,10,0,0,1-.12-3.1c0-.27.56-.14.56-.14a5.23,5.23,0,0,1-.12-2l.22-.53s.36-1.06.81-1l.45,0s-.64-1.06-.42-1.58l.23-.53s.2-1.44.28-2.44.3-2.7.3-2.7l.45,0-.05-1.73L3,28.56l.54.05a9.29,9.29,0,0,0,.36-1.07A.8.8,0,0,1,4.55,27s.41-1.79.54-2.33.63.14.63.14.51-1.87.75-2.58.79.34.79.34a2.73,2.73,0,0,1,.7-2s1.23.55,1.21.82,0-.27,0-.27,0-1.27.06-1.9,1,.26,1,.26-.07-1.47.31-1.71,1,0,1.14-.64a9.55,9.55,0,0,1,1-1.92c.2-.26,1.3-.36,1.27.1,0,0-.06-1.64.32-1.8l.38-.15.85.7a15.75,15.75,0,0,1,.78-3l.3-.34.2.93a18.62,18.62,0,0,1,.63-2.14c.21-.44.71.15.71.15l.16-2,.71.24a7,7,0,0,1-.2-2.2L19,5.34l.63.14.22-1.71.33.48.09-1.18.61.32-.27-1.11c.14-.62.63-2.31,1.08-2.28s.92,1.07.92,1.07-.57.32-.6.68l0,.37s-.2.25,0,.82l.23.56.15.47s.91,0,.5-1.78c0,0,1.13.72,1.17,1.36a4.22,4.22,0,0,0,.42,1.58c.16.29.91,0,1,.53s.22,4.11.38,4.4,1.16.27,1.16.27l.68,1.78.63.14,1.08,2.45s1.09,0,1.21-.36.9,2.44.9,2.44L32.61,16l.74,2.15s1.18,1.18,1.12,2l-.06.81.86-.57a10.93,10.93,0,0,1,.26,2.48l.74-.13s.58.69.55,1.05.54,1.22.43,1.49.22.65.22.65a3.3,3.3,0,0,1,1.14.54c.25.3,0,1.1,0,1.1s.79-.76.93-.29a7.86,7.86,0,0,1-.06,2l1-.1.1,1a6.84,6.84,0,0,1-.06,2c-.21.26,1.05-.73,1.05-.73l.26,1.38A3.7,3.7,0,0,1,42.12,34a1.23,1.23,0,0,1-.52.77l.71.33.33,1.48-.5.69.62.14-.14.63-.12,1.54.43.3A15.39,15.39,0,0,1,42.77,42l.13.65a10.83,10.83,0,0,1-.42,2l-.21.35-.65.13a10.19,10.19,0,0,1-.34,2.06,3.22,3.22,0,0,1-1.06.74l-.39.33-.3,1.43-.76.4a10,10,0,0,0-.62,1,13.7,13.7,0,0,1-.86,1.76l-.42.69a2.25,2.25,0,0,1-.63,1,5.61,5.61,0,0,1-1.4.53c-.28.07-1.12.37-1.05.64s.32.49.29.94a11.2,11.2,0,0,1-.5,1.69,7.89,7.89,0,0,0-.39,1.51c0,.55.77.7.74,1.06s-2.17.92-2.17.92l-.61.87-1.9.94a2.86,2.86,0,0,1-.88.84c-.47.24-1.88.76-1.88.76s-.24.71-1.86.59-5.1,0-5.1,0,0,1.46-.07,2.18a46.26,46.26,0,0,0,.17,4.75,7,7,0,0,1-.24,3.07c-.33.7-1,2.29-1,2.29s-.76-.7-1-1a5,5,0,0,0-1.22-.73"/></g></g></svg>